<svg xmlns="http://www.w3.org/2000/svg" viewBox="0 0 512 512"><rect width="512" height="512" rx="100" fill="#160b10"/><circle cx="256" cy="256" r="185" fill="#8d1825"/><circle cx="256" cy="256" r="135" fill="#d59b4a"/><path d="M145 210l-35-70 70 25 76-48 76 48 70-25-35 70 10 80c-10 75-67 120-121 120s-111-45-121-120z" fill="#b96f32"/><path d="M170 245q25-25 50 0M292 245q25-25 50 0" fill="none" stroke="#160b10" stroke-width="16" stroke-linecap="round"/><circle cx="205" cy="248" r="9"/><circle cx="307" cy="248" r="9"/><path d="M220 310q36 25 72 0" fill="none" stroke="#160b10" stroke-width="14" stroke-linecap="round"/><path d="M256 270v25" stroke="#160b10" stroke-width="12" stroke-linecap="round"/></svg>